<?xml version="1.0" encoding="UTF-8" standalone="no"?>
<!DOCTYPE svg PUBLIC "-//W3C//DTD SVG 20010904//EN"
              "http://www.w3.org/TR/2001/REC-SVG-20010904/DTD/svg10.dtd">

<svg xmlns="http://www.w3.org/2000/svg"
     width="0.458333in" height="0.597222in"
     viewBox="0 0 33 43">
  <path id="選択範囲"
        fill="none" stroke="black" stroke-width="1"
        d="M 26.25,24.38
           C 26.25,24.38 24.38,25.88 24.38,25.88
             24.38,25.88 21.88,21.50 21.88,21.50
             21.88,21.50 24.50,19.50 24.50,19.50
             24.50,19.50 26.25,24.38 26.25,24.38 Z
           M 20.01,1.99
           C 20.01,1.99 0.50,21.51 0.51,21.50
             0.51,21.50 20.00,41.00 20.00,41.00
             20.00,41.00 31.01,41.00 31.01,41.00
             31.01,41.00 11.51,21.49 11.51,21.48
             11.53,21.49 31.02,2.00 31.01,1.99
             31.02,2.00 20.01,2.00 20.01,1.99 Z
           M 23.13,21.88
           C 23.13,21.88 23.14,21.89 23.14,21.89M 23.14,21.88" />
</svg>
